<svg xmlns="http://www.w3.org/2000/svg" viewBox="0 0 24 24" fill="none" stroke="#0a192f" stroke-width="1.5" stroke-linecap="round" stroke-linejoin="round">
  <!-- Rock Hand / Horn Sign 🤘 -->
  <!-- Index finger (extended) -->
  <path d="M8 14V6a2 2 0 1 1 4 0v5"/>
  
  <!-- Pinky finger (extended) -->
  <path d="M17 11V4a2 2 0 1 1 4 0v7"/>
  
  <!-- Middle and ring fingers (folded into palm) -->
  <path d="M12 11V8a2 2 0 1 1 4 0v3"/>
  
  <!-- Palm and wrist -->
  <path d="M8 14c-1.5 0-3 1-3 3v2a6 6 0 0 0 6 6h4a6 6 0 0 0 6-6v-5c0-1.5-1-3-3-3"/>
  
  <!-- Thumb -->
  <path d="M5 17h3"/>
</svg>
