<?xml version="1.0" encoding="iso-8859-1"?>
<!-- Uploaded to: SVG Repo, www.svgrepo.com, Generator: SVG Repo Mixer Tools -->
<svg fill="#000000" height="800px" width="800px" version="1.1" id="Layer_1" xmlns="http://www.w3.org/2000/svg" xmlns:xlink="http://www.w3.org/1999/xlink" 
	 viewBox="0 0 512 512" xml:space="preserve">
<g transform="translate(1 1)">
	<g>
		<g>
			<path d="M464.808,454.68l-56.32-115.162V151.512c14.679-3.814,25.6-17.216,25.6-33.046c0-18.773-15.36-34.133-34.133-34.133
				h-59.733V67.267c18.773,0,34.133-15.36,34.133-34.133C374.354,14.36,358.994-1,340.221-1H169.554
				c-18.773,0-34.133,15.36-34.133,34.133c0,18.773,15.36,34.133,34.133,34.133v134.827L45.821,455.533
				c-5.973,11.947-5.12,26.453,2.56,37.547c7.68,11.093,19.627,17.92,33.28,17.92h267.093h80.213c13.653,0,25.6-6.827,33.28-18.773
				C469.074,481.133,469.928,466.627,464.808,454.68z M349.181,493.923c-23.689-0.223-42.24-18.906-42.24-42.656V335.213
				c0-1.433-0.315-2.706-0.853-3.838V152.6h85.333v189.44v109.227C391.421,475.017,372.87,493.7,349.181,493.923z M417.021,118.467
				c0,9.387-7.68,17.067-17.067,17.067h-102.4c-9.387,0-17.067-7.68-17.067-17.067s7.68-17.067,17.067-17.067h34.133h68.267
				C409.341,101.4,417.021,109.08,417.021,118.467z M152.488,33.133c0-9.387,7.68-17.067,17.067-17.067h170.667
				c9.387,0,17.067,7.68,17.067,17.067c0,9.387-7.68,17.067-17.067,17.067h-8.533h-153.6h-8.533
				C160.168,50.2,152.488,42.52,152.488,33.133z M185.768,207.213c0.853-0.853,0.853-1.707,0.853-3.413V67.267h137.387v17.067h-25.6
				h-0.853c-18.773,0-34.133,15.36-34.133,34.133c0,14.933,9.723,27.697,23.148,32.298c0.805,0.286,1.622,0.54,2.452,0.761v166.68
				c-6.436-4.84-12.754-10.253-18.773-16.273c-32.122-32.122-82.304-38.511-121.618-19.18L185.768,207.213z M81.661,493.933
				c-8.533,0-15.36-3.413-19.627-10.24s-5.12-14.507-1.707-21.333l73.444-149.386c33.289-32.371,91.268-31.502,124.529,0.906
				c9.146,9.146,19.912,18.285,30.72,25.063v112.324c0,16.809,6.755,31.87,17.722,42.667H81.661z M447.741,483.693
				c-4.267,6.827-11.093,10.24-18.773,10.24h-38.202c8.065-7.94,13.841-18.187,16.337-29.739c0.051-0.234,0.111-0.465,0.159-0.7
				c0.089-0.44,0.159-0.887,0.239-1.33c0.103-0.567,0.213-1.132,0.3-1.706c0.029-0.191,0.047-0.387,0.074-0.579
				c0.115-0.811,0.224-1.624,0.306-2.448c0.013-0.134,0.018-0.272,0.031-0.406c0.081-0.875,0.154-1.754,0.198-2.645
				c0.052-1.031,0.078-2.068,0.078-3.113v-72.533l40.96,83.627C452.861,469.187,452.008,476.867,447.741,483.693z"/>
			<path d="M365.821,186.733h-34.133c-5.12,0-8.533,3.413-8.533,8.533s3.413,8.533,8.533,8.533h34.133
				c5.12,0,8.533-3.413,8.533-8.533S370.941,186.733,365.821,186.733z"/>
			<path d="M331.688,237.933h8.533c5.12,0,8.533-3.413,8.533-8.533s-3.413-8.533-8.533-8.533h-8.533
				c-5.12,0-8.533,3.413-8.533,8.533S326.568,237.933,331.688,237.933z"/>
			<path d="M365.821,255h-34.133c-5.12,0-8.533,3.413-8.533,8.533s3.413,8.533,8.533,8.533h34.133c5.12,0,8.533-3.413,8.533-8.533
				S370.941,255,365.821,255z"/>
			<path d="M331.688,306.2h8.533c5.12,0,8.533-3.413,8.533-8.533s-3.413-8.533-8.533-8.533h-8.533c-5.12,0-8.533,3.413-8.533,8.533
				S326.568,306.2,331.688,306.2z"/>
			<path d="M365.821,323.267h-34.133c-5.12,0-8.533,3.413-8.533,8.533c0,5.12,3.413,8.533,8.533,8.533h34.133
				c5.12,0,8.533-3.413,8.533-8.533C374.354,326.68,370.941,323.267,365.821,323.267z"/>
			<path d="M340.221,357.4h-8.533c-5.12,0-8.533,3.413-8.533,8.533s3.413,8.533,8.533,8.533h8.533c5.12,0,8.533-3.413,8.533-8.533
				S345.341,357.4,340.221,357.4z"/>
		</g>
	</g>
</g>
</svg>