<?xml version="1.0" encoding="iso-8859-1"?>
<!-- Uploaded to: SVG Repo, www.svgrepo.com, Generator: SVG Repo Mixer Tools -->
<svg fill="#000000" height="800px" width="800px" version="1.1" id="Layer_1" xmlns="http://www.w3.org/2000/svg" xmlns:xlink="http://www.w3.org/1999/xlink" 
	 viewBox="0 0 512 512" xml:space="preserve">
<g>
	<g>
		<g>
			<path d="M466.045,456.149c-0.043-0.102-0.094-0.188-0.137-0.282l-56.516-114.799V152.388c14.677-3.814,25.6-17.058,25.6-32.922
				c0-18.825-15.317-34.133-34.133-34.133h-102.4c-18.825,0-34.133,15.309-34.133,34.133c0,15.863,10.923,29.107,25.6,32.922
				v299.878c0,32.93,26.795,59.733,59.733,59.733h80.188c13.491,0,25.933-6.758,33.28-18.091
				C470.465,482.586,471.557,468.463,466.045,456.149z M298.459,136.533c-9.412,0-17.067-7.654-17.067-17.067
				s7.654-17.067,17.067-17.067h102.4c9.412,0,17.067,7.654,17.067,17.067s-7.654,17.067-17.067,17.067H298.459z M341.125,375.467
				h-8.533c-4.71,0-8.533-3.814-8.533-8.533s3.823-8.533,8.533-8.533h8.533c4.71,0,8.533,3.814,8.533,8.533
				S345.836,375.467,341.125,375.467z M366.725,341.333h-34.133c-4.71,0-8.533-3.814-8.533-8.533c0-4.719,3.823-8.533,8.533-8.533
				h34.133c4.71,0,8.533,3.814,8.533,8.533C375.259,337.519,371.436,341.333,366.725,341.333z M324.059,298.667
				c0-4.719,3.823-8.533,8.533-8.533h8.533c4.71,0,8.533,3.814,8.533,8.533s-3.823,8.533-8.533,8.533h-8.533
				C327.882,307.2,324.059,303.386,324.059,298.667z M366.725,273.067h-34.133c-4.71,0-8.533-3.814-8.533-8.533
				s3.823-8.533,8.533-8.533h34.133c4.71,0,8.533,3.814,8.533,8.533S371.436,273.067,366.725,273.067z M324.059,230.4
				c0-4.719,3.823-8.533,8.533-8.533h8.533c4.71,0,8.533,3.814,8.533,8.533s-3.823,8.533-8.533,8.533h-8.533
				C327.882,238.933,324.059,235.119,324.059,230.4z M366.725,204.8h-34.133c-4.71,0-8.533-3.814-8.533-8.533
				s3.823-8.533,8.533-8.533h34.133c4.71,0,8.533,3.814,8.533,8.533S371.436,204.8,366.725,204.8z M448.799,484.634
				c-4.241,6.545-11.153,10.3-18.953,10.3h-38.426c0.085-0.077,0.154-0.171,0.239-0.247c0.666-0.666,1.289-1.382,1.929-2.082
				c0.657-0.725,1.348-1.417,1.971-2.176c0.614-0.742,1.169-1.527,1.758-2.304c0.572-0.76,1.178-1.51,1.724-2.304
				c0.555-0.819,1.05-1.69,1.57-2.534c0.486-0.802,1.007-1.579,1.459-2.406c0.486-0.887,0.905-1.826,1.348-2.748
				c0.401-0.828,0.836-1.647,1.203-2.5c0.41-0.964,0.742-1.971,1.101-2.961c0.316-0.853,0.666-1.681,0.939-2.551
				c0.341-1.084,0.589-2.21,0.87-3.328c0.205-0.811,0.452-1.596,0.623-2.423c0.273-1.306,0.435-2.645,0.623-3.985
				c0.085-0.666,0.23-1.306,0.299-1.971c0.205-2.022,0.316-4.07,0.316-6.144v-72.567l41.131,83.55
				C453.646,470.34,453.023,478.123,448.799,484.634z"/>
			<path d="M272.857,452.267V328.235c-5.035-4.122-9.95-8.465-14.566-13.082c-33.109-33.109-91.23-33.135-124.382-0.077
				l-34.074,31.616L45.956,456.149c-5.513,12.314-4.42,26.436,2.91,37.76C56.213,505.242,68.654,512,82.146,512h219.349
				C284.053,497.911,272.857,476.382,272.857,452.267z"/>
			<path d="M120.929,303.838l1.152-1.067c40.055-39.945,108.058-39.902,148.275,0.316c0.811,0.802,1.673,1.562,2.5,2.355V163.678
				c-15.548-8.969-25.6-25.66-25.6-44.211c0-28.237,22.963-51.2,51.2-51.2h42.871c18.825,0,34.133-15.309,34.133-34.133
				C375.461,15.309,360.152,0,341.328,0H170.661c-18.825,0-34.133,15.309-34.133,34.133c0,18.825,15.309,34.133,34.133,34.133
				V202.82L120.929,303.838z M153.594,34.133c0-9.412,7.654-17.067,17.067-17.067h170.667c9.412,0,17.067,7.654,17.067,17.067
				c0,9.412-7.654,17.067-17.067,17.067h-8.533h-153.6h-8.533C161.249,51.2,153.594,43.546,153.594,34.133z"/>
		</g>
	</g>
</g>
</svg>